<svg width="48" height="48" viewBox="0 0 48 48" fill="none" xmlns="http://www.w3.org/2000/svg">
  <circle cx="24" cy="24" r="24" fill="#10b981"/>
  <path d="M24 10c-6.627 0-12 5.373-12 12 0 4.418 2.392 8.29 6 10.392V34a2 2 0 002 2h8a2 2 0 002-2v-1.608A11.963 11.963 0 0036 22c0-6.627-5.373-12-12-12zm0 2c5.523 0 10 4.477 10 10 0 3.53-1.857 6.63-4.64 8.44a1 1 0 00-.36.77V34h-8v-2.79a1 1 0 00-.36-.77C15.857 28.63 14 25.53 14 22c0-5.523 4.477-10 10-10zm-2 18h4v2h-4v-2z" fill="#fff"/>
  <path d="M24 14a8 8 0 018 8c0 2.21-1.79 4-4 4h-8a4 4 0 01-4-4 8 8 0 018-8z" fill="#34d399"/>
</svg>
